<?xml version="1.0" encoding="UTF-8"?>
<svg id="Calque_1" data-name="Calque 1" xmlns="http://www.w3.org/2000/svg" viewBox="0 0 222.67 247.93">
  <defs>
    <style>
      .cls-1 {
        fill: #b98d3e;
      }

      .cls-2 {
        fill: none;
        stroke: #b98d3e;
        stroke-miterlimit: 10;
        stroke-width: 5px;
      }
    </style>
  </defs>
  <path class="cls-1" d="M112.89,80.67c-4,.15-7.96.26-11.87.84l-2.98.35-.75.08c-.28.02-.41.07-.93.05-.89-.07-1.7-.72-2.06-1.5-.62-1.25-.29-2.83.78-3.76.72-.8,1.41-1.64,2.12-2.5,0,0,3.8-4.61,3.8-4.61,3.78-4.45,7.89-9.36,11.78-13.68.37-.34,1.02-.88,1.7-.93,1.6-.24,2.9,1.32,2.56,2.8-.11.54-.27.88-.44,1.3-1.34,3.09-3.15,6.32-3.51,9.63-.07.76.14,1.05.47,1.62,5.2,7.66,15.62,4.88,23.48,4.71,3.41-.11,6.91,3.64,5.21,7.01,0,0-.05.09-.05.09l-.81,1.4c-7.41,13.22-22.18,29.77-16.24,45.59-6.92-11.83.31-25.95,6.08-36.75,2.28-4.23,4.7-8.29,6.91-12.47,0,0,.05-.09.05-.09-.08.13-.14.34-.14.47,0,.12.02.15,0,.13-.06-.18-.61-.63-.82-.58-1.43,0-4.02.3-5.49.45-4.4.48-9.33.76-13.65-.75-4.12-1.42-8.32-4.42-9.67-8.83-.49-2.12.07-4.2.67-6.02.9-2.62,2.18-5.02,3.38-7.46,0,0,.13-.28.13-.28.04-.07.07-.17.04-.08-.06.3-.06.62.02.92.26,1.29,1.98,2.1,3.15,1.37.17-.12.06-.05.03-.02,0,0,.13-.13.13-.13l-8.29,8.56c-2.05,2.16-6.23,6.46-8.32,8.58-.9.94-1.89,1.88-2.84,2.8-.14.19-.08.72.12.83.11.04,1.06.01,1.3.03,4.98-.14,10.08.09,14.96.84h0Z"/>
  <path class="cls-1" d="M124.36,99.37c-1.44,4.95-4.38,9.43-5.74,14.11-.66,2.14-.95,4.5-.09,6.53.44.98,1.1,1.88,1.8,2.72,4.2,4.72,10.25,6.95,15.2,11,8.46,6.65,15.24,17.62,13.2,28.79-2.06,10.46-8.13,19.53-14.49,27.81-3.22,4.08-6.6,7.97-10.84,11.02,3.42-3.79,6.23-8.04,8.83-12.43,5.03-8.39,10.23-17.55,11.81-27.14,1.37-9.43-4.51-18.41-11.52-24.4-4.93-4.27-12.6-7.81-16.17-14.2-4.64-8.72,4.37-16.71,8-23.82h0Z"/>
  <path class="cls-1" d="M119.64,170.8c1.34,1.07,1.23,3.18,1.28,4.72-.04,1.8-.36,3.5-.78,5.18-.22,1.05-.14,1.82-.14,3.03.02,1.67-.28,3.09-.82,4.76-1.86-1.8-2.88-4.07-3.15-6.66-.03-2.43,1.32-4.68,2.17-6.89,0,0,.89-2.02.89-2.02.25-.69.65-1.33.55-2.12h0Z"/>
  <path class="cls-1" d="M117.82,178.76c-.65-.36-.18-1.33-.04-1.85.02-.13.1-.3-.11-.22-.62.4-.57,1.61,0,2.11.15.16.28.24.38.32.12.07-.11.02-.2.01-1.22-.23-2.15-1.06-2.39-2.29-.13-.74-.04-1.92.86-2.24.79.65,2.39.07,2.87,1.09.05.13-.13.07.13.21,1.17.55,1.59,2.11.55,2.95-.67.41-.96.16-1.53-.09-.13-.06-.33-.17-.52,0h0Z"/>
  <path class="cls-1" d="M127.76,58.94c38.11,5.73,60.93,46.15,52.71,82.58-4.39,21.29-19.81,40.73-40.17,48.23,22.57-12.34,36.66-36.57,36.84-61.98.8-30.62-19.43-60.25-49.38-68.82h0Z"/>
  <path class="cls-2" d="M90.13,190.24c-23.73-10.26-40.45-34.97-40.45-63.81,0-38.04,29.07-69.28,64.96-69.28.4,0-.23.25.17.26"/>
  <path class="cls-1" d="M116.51,195.29c-8.99,1.11-18.42.21-27.37-2.76l1.98-4.59c7.62,4.2,16.33,6.79,25.39,7.34,0,0-9.05-.55,0,0Z"/>
</svg>